# AST/ASF file generated using VICON BodyLanguage
# -----------------------------------------------
:version 1.10
:name VICON
:units
  mass 1.0
  length 0.45
  angle deg
:documentation
   .ast/.asf automatically generated from VICON data using
   VICON BodyBuilder and BodyLanguage model FoxedUp or BRILLIANT.MOD
:root
   order TX TY TZ RX RY RZ
   axis XYZ
   position 0 0 0  
   orientation 0 0 0 
:bonedata
  begin
     id 1 
     name lhipjoint
     direction 0.603808 -0.713975 0.35448 
     length 2.2025 
     axis 0 0 0  XYZ
  end
  begin
     id 2 
     name lfemur
     direction 0.34202 -0.939693 0  
     length 6.55877  
     axis 0 0 20  XYZ
    dof rx ry rz
    limits (-160.0 20.0)
           (-70.0 70.0)
           (-60.0 70.0)
  end
  begin
     id 3 
     name ltibia
     direction 0.34202 -0.939693 0   
     length 6.80302   
     axis 0 0 20   XYZ
    dof rx
    limits (-10.0 170.0)
  end
  begin
     id 4 
     name lfoot
     direction 0.091848 -0.25235 0.963267   
     length 2.03446   
     axis -90 7.62852e-016 20   XYZ
    dof rx rz
    limits (-45.0 90.0)
           (-70.0 20.0)
  end
  begin
     id 5 
     name ltoes
     direction 1.53608e-011 -4.21925e-011 1   
     length 1.02033   
     axis -90 7.62852e-016 20   XYZ
    dof rx
    limits (-90.0 20.0)
  end
  begin
     id 6 
     name rhipjoint
     direction -0.587285 -0.724947 0.359928   
     length 2.16916  
     axis 0 0 0  XYZ 
  end
  begin
     id 7 
     name rfemur
     direction -0.34202 -0.939693 0   
     length 6.43173   
     axis 0 0 -20   XYZ
    dof rx ry rz
    limits (-160.0 20.0)
           (-70.0 70.0)
           (-70.0 60.0)
  end
  begin
     id 8 
     name rtibia
     direction -0.34202 -0.939693 0   
     length 6.70662   
     axis 0 0 -20   XYZ
    dof rx
    limits (-10.0 170.0)
 end
 begin
     id 9 
     name rfoot
     direction -0.11854 -0.325686 0.938018   
     length 2.0773  
     axis -90 -7.62852e-016 -20   XYZ
    dof rx rz
    limits (-45.0 90.0)
           (-20.0 70.0)
  end
  begin
     id 10 
     name rtoes
     direction -1.53547e-011 -4.21838e-011 1   
     length 1.03267   
     axis -90 -7.62852e-016 -20   XYZ
    dof rx
    limits (-90.0 20.0)
  end
  begin
     id 11 
     name lowerback
     direction -0.0286554 0.999539 0.0100613   
     length 2.08751   
     axis 0 0 0   XYZ
    dof rx ry rz
    limits (-20.0 45.0)
           (-30.0 30.0)
           (-30.0 30.0)
  end
  begin
     id 12 
     name upperback
     direction 0.0227093 0.999705 -0.00860929   
     length 2.08517   
     axis 0 0 0   XYZ
    dof rx ry rz
    limits (-20.0 45.0)
           (-30.0 30.0)
           (-30.0 30.0)
  end
  begin
     id 13 
     name thorax
     direction 0.0351627 0.999285 -0.013892   
     length 2.08412   
     axis 0 0 0   XYZ
    dof rx ry rz
    limits (-20.0 45.0)
           (-30.0 30.0)
           (-30.0 30.0)
  end
  begin
     id 14 
     name lowerneck
     direction -0.0696283 0.997344 0.0213922   
     length 1.44164   
     axis 0 0 0   XYZ
    dof rx ry rz
    limits (-20.0 45.0)
           (-30.0 30.0)
           (-30.0 30.0)
  end
  begin
     id 15 
     name upperneck
     direction 0.0531 0.990412 -0.127531   
     length 1.45022   
     axis 0 0 0   XYZ
    dof rx ry rz
    limits (-20.0 45.0)
           (-30.0 30.0)
           (-30.0 30.0)
  end
  begin
     id 16
     name head
     direction 0.0188154 0.998548 -0.0504727  
     length 1.45845  
     axis 0 0 0   XYZ
    dof rx ry rz
    limits (-20.0 45.0)
           (-30.0 30.0)
           (-30.0 30.0)
  end
  begin
     id 17 
     name lclavicle
     direction 0.961559 0.260051 0.088188  
     length 2.86057  
     axis 0 0 0   XYZ
    dof ry rz
    limits (-20.0 10.0)
           (0.0 20.0)
  end
  begin
     id 18 
     name lhumerus
     direction 1 -4.48959e-011 2.88185e-027   
     length 4.36901   
     axis 180 -30 -90   XYZ
    dof rx ry rz
    limits (-60.0 90.0)
           (-90.0 90.0)
           (-90.0 90.0)
  end
  begin
     id 19
     name lradius
     direction 1 -4.48965e-011 -3.92618e-028   
     length 3.21737   
     axis 180 -30 -90   XYZ
    dof rx
    limits (-10.0 170.0)
  end
  begin
     id 20
     name lwrist
     direction 1 -4.49037e-011 2.57246e-027   
     length 1.60869   
     axis -1.61769e-015 90 90   XYZ
    dof ry
    limits (-180.0 0.0)
 end
  begin
     id 21 
     name lhand
     direction 1 -4.48807e-011 5.12958e-027   
     length 0.564313   
     axis -3.27988e-015 90 90   XYZ
    dof rx rz
    limits (-90.0 90.0)
           (-45.0 45.0)
  end
  begin
     id 22 
     name lfingers
     direction 1 -4.48879e-011 1.02687e-026   
     length 0.454963   
     axis -6.5598e-015 90 90   XYZ
    dof rx
    limits (0.0 90.0)
  end
  begin
     id 23
     name lthumb
     direction 0.707107 -6.3475e-011 0.707107   
     length 0.653239   
     axis -90 45 2.19363e-014   XYZ
    dof rx rz
    limits (-45.0 45.0)
           (-45.0 45.0)
  end
  begin
     id 24 
     name rclavicle
     direction -0.954677 0.253915 0.155304   
     length 3.11497  
     axis 0 0 0   XYZ 
    dof ry rz
    limits (-10.0 20.0)
           (-20.0 0.0)
  end
  begin
     id 25 
     name rhumerus
     direction -1 -4.48958e-011 -8.20169e-028  
     length 4.34118   
     axis 180 30 90   XYZ
    dof rx ry rz
    limits (-90.0 60.0)
           (-90.0 90.0)
           (-90.0 90.0)
  end
  begin
     id 26 
     name rradius
     direction -1 -4.48978e-011 1.5676e-027   
     length 3.09531   
     axis 180 30 90   XYZ
    dof rx
    limits (-10.0 170.0)
  end
  begin
     id 27 
     name rwrist
     direction -1 -4.49001e-011 2.57123e-027   
     length 1.54765   
     axis -1.61769e-015 -90 -90   XYZ
    dof ry
    limits (-180.0 0.0)
  end
  begin
     id 28
     name rhand
     direction -1 -4.48847e-011 5.13225e-027   
     length 0.597446   
     axis -3.27988e-015 -90 -90   XYZ
    dof rx rz
    limits (-90.0 90.0)
           (-45.0 45.0)
  end
  begin
     id 29
     name rfingers
     direction -1 -4.49094e-011 1.02974e-026   
     length 0.481677   
     axis -6.5598e-015 -90 -90   XYZ
    dof rx
    limits (0.0 90.0)
  end
  begin
     id 30
     name rthumb
     direction -0.707107 -6.34859e-011 0.707107   
     length 0.691594   
     axis -90 -45 -2.19363e-014   XYZ
    dof rx rz
    limits (-45.0 45.0)
           (-45.0 45.0)
  end
:hierarchy
  begin
    root lhipjoint rhipjoint lowerback
    lhipjoint lfemur
    lfemur ltibia
    ltibia lfoot
    lfoot ltoes
    rhipjoint rfemur
    rfemur rtibia
    rtibia rfoot
    rfoot rtoes
    lowerback upperback
    upperback thorax
    thorax lowerneck lclavicle rclavicle
    lowerneck upperneck
    upperneck head
    lclavicle lhumerus
    lhumerus lradius
    lradius lwrist
    lwrist lhand lthumb
    lhand lfingers
    rclavicle rhumerus
    rhumerus rradius
    rradius rwrist
    rwrist rhand rthumb
    rhand rfingers
  end

#!OML:ASF G:\acrobat\cartwheel_test 2\Patient 1\Session 1\acrobat.ASF
:FULLY-SPECIFIED
:DEGREES
133
root 6.70211 15.4355 -38.4633 -525.112 184.706 180.803
lowerback 1.35568 0.150513 -8.19762
upperback -1.00682 0.0471156 1.41644
thorax -1.81906 0.137563 6.0846
lowerneck -11.6448 -4.42554 -5.9569
upperneck 12.9371 -5.93099 6.51527
head 6.21155 -2.67274 2.51475
rclavicle 1.73937e-016 2.78299e-015
rhumerus -36.1538 -3.58181 -68.5422
rradius 33.5566
rwrist -4.85671
rhand -32.665 34.6039
rfingers 7.12502
rthumb -5.89078 4.70577
lclavicle 1.73937e-016 2.78299e-015
lhumerus -40.5888 2.90254 64.4948
lradius 28.2736
lwrist 24.4184
lhand -23.7117 54.8974
lfingers 7.12502
lthumb 2.75579 -635.141
rfemur -2.31867 8.48371 21.4199
rtibia 15.1054
rfoot -198.106 175.23
rtoes -16.7243
lfemur -7.57947 2.08805 -24.5225
ltibia 20.5518
lfoot 339.176 3.17505
ltoes -28.7347
134
root 6.69963 15.5842 -38.589 -525.685 184.718 180.317
lowerback 1.2199 0.216806 -7.14973
upperback -1.05503 0.165895 1.33789
thorax -1.80457 0.183858 5.40225
lowerneck -12.0201 -4.50902 -5.94142
upperneck 13.8679 -6.01372 6.12481
head 6.56446 -2.7279 2.37118
rclavicle -1.07872e-014 -2.78174e-014
rhumerus -37.5921 -3.12496 -70.0629
rradius 32.8075
rwrist -2.96128
rhand -31.3298 35.2711
rfingers 7.12502
rthumb -4.60162 5.34112
lclavicle -1.07872e-014 -2.78174e-014
lhumerus -41.0442 1.42677 67.9007
lradius 29.0565
lwrist 23.8234
lhand -24.9441 55.7867
lfingers 7.12502
lthumb 1.56559 -634.239
rfemur -1.5306 7.70973 21.6905
rtibia 13.4323
rfoot -196.196 176.076
rtoes -15.8351
lfemur -6.44376 2.42756 -23.8512
ltibia 18.5682
lfoot 340.587 3.13828
ltoes -28.7703
135
root 6.69497 15.7224 -38.7459 -525.75 183.797 179.962
lowerback 1.15424 0.00664833 -6.07388
upperback -1.34794 -0.0954441 1.34457
thorax -2.03027 0.0542797 4.80641
lowerneck -12.361 -4.60586 -6.11519
upperneck 14.4941 -6.09449 5.9369
head 6.82869 -2.78072 2.3236
rclavicle 5.60247e-015 -1.00138e-014
rhumerus -39.2123 -2.2121 -71.663
rradius 32.8551
rwrist -1.18472
rhand -30.3832 35.4623
rfingers 7.12502
rthumb -3.68752 5.51447
lclavicle 5.60247e-015 -1.00138e-014
lhumerus -41.7316 -0.0673925 71.4015
lradius 30.568
lwrist 23.2917
lhand -25.8252 56.2288
lfingers 7.12502
lthumb 0.714588 -633.793
rfemur -1.22397 6.75521 22.0034
rtibia 11.5175
rfoot -194.455 176.09
rtoes -16.248
lfemur -6.4498 2.30985 -23.1873
ltibia 17.3668
lfoot 341.933 3.29142
ltoes -29.3556
136
root 6.6997 15.8137 -38.8733 -525.253 184.726 179.52
lowerback -0.0451455 0.337718 -5.32405
upperback -1.67191 0.421285 1.32042
thorax -1.74784 0.300589 4.34593
lowerneck -12.4705 -4.6819 -6.45706
upperneck 14.367 -6.10545 5.85294
head 6.81586 -2.81035 2.34884
rclavicle -6.78353e-015 -2.01766e-014
rhumerus -40.9155 -0.833033 -73.2031
rradius 33.5313
rwrist -0.36444
rhand -29.6257 35.6094
rfingers 7.12502
rthumb -2.95597 5.65012
lclavicle -6.78353e-015 -2.01766e-014
lhumerus -42.6775 -1.15055 74.6832
lradius 32.5178
lwrist 23.4094
lhand -25.6673 56.3217
lfingers 7.12502
lthumb 0.867055 -633.7
rfemur -1.9265 6.80349 21.8939
rtibia 10.2929
rfoot -192.468 177.053
rtoes -17.4305
lfemur -6.63205 3.16194 -22.977
ltibia 15.5524
lfoot 343.57 4.34182
ltoes -30.9736
137
root 6.6995 15.8861 -39.0274 -525.101 185.041 179.658
lowerback -0.359892 0.431575 -5.12601
upperback -2.01503 0.557134 1.22443
thorax -1.93719 0.377673 4.13294
lowerneck -12.8376 -4.66363 -6.80606
upperneck 14.3086 -6.01485 6.01386
head 6.87094 -2.76593 2.46058
rclavicle 6.27414e-016 -4.96962e-015
rhumerus -42.5663 0.424546 -74.5502
rradius 34.4767
rwrist -0.336353
rhand -28.8341 35.8932
rfingers 7.12502
rthumb -2.19148 5.92474
lclavicle 6.27414e-016 -4.96962e-015
lhumerus -43.4921 -1.19178 77.1452
lradius 33.8988
lwrist 23.8397
lhand -24.8761 54.3259
lfingers 7.12502
lthumb 1.63127 -635.701
rfemur -2.50385 6.68785 21.466
rtibia 9.55552
rfoot -191.251 177.306
rtoes -18.2554
lfemur -6.87871 3.15935 -23.301
ltibia 14.5144
lfoot 344.436 5.19239
ltoes -31.9603
138
root 6.67615 15.9261 -39.1648 -525.589 185.161 180.04
lowerback -0.438417 0.459617 -5.59357
upperback -1.98205 0.596717 1.24771
thorax -1.87072 0.402961 4.42168
lowerneck -12.8881 -4.71464 -7.02318
upperneck 13.5917 -6.00384 6.00884
head 6.65554 -2.77417 2.49479
rclavicle 2.88238e-015 -8.54774e-015
rhumerus -43.7689 1.40909 -75.5041
rradius 35.4309
rwrist -1.10695
rhand -28.4154 35.8982
rfingers 7.12502
rthumb -1.78711 5.92589
lclavicle 2.88238e-015 -8.54774e-015
lhumerus -43.9815 -0.874591 79.3744
lradius 34.8952
lwrist 25.4806
lhand -24.4897 49.865
lfingers 7.12502
lthumb 2.00445 -640.165
rfemur -2.09562 7.15218 21.22
rtibia 8.7924
rfoot -191.659 176.695
rtoes -18.1961
lfemur -6.40039 3.17994 -23.6122
ltibia 13.6551
lfoot 344.513 5.47962
ltoes -31.7675
139
root 6.65715 15.9309 -39.3051 -526.279 185.309 180.358
lowerback -0.196229 0.589103 -5.74771
upperback -1.95662 0.75201 1.07893
thorax -1.99922 0.484863 4.3286
lowerneck -13.1357 -4.70124 -6.95084
upperneck 13.2438 -6.00066 6.20747
head 6.59051 -2.74948 2.54354
rclavicle -2.43511e-015 2.38542e-015
rhumerus -44.7056 1.61493 -76.2902
rradius 35.9666
rwrist -2.11773
rhand -28.2455 35.9221
rfingers 7.12502
rthumb -1.62306 5.94851
lclavicle -2.43511e-015 2.38542e-015
lhumerus -43.5258 1.75289 78.5243
lradius 34.9031
lwrist 31.0046
lhand -18.5743 43.5603
lfingers 7.12502
lthumb 7.71602 -646.6
rfemur -1.50323 7.68506 21.1078
rtibia 8.23606
rfoot -192.327 176.068
rtoes -17.6434
lfemur -5.80141 3.27709 -23.8117
ltibia 12.9851
lfoot 344.038 5.30593
ltoes -30.998
140
root 6.64752 15.8985 -39.4605 -526.495 184.872 180.617
lowerback -0.225746 0.504151 -5.6519
upperback -2.09321 0.636336 0.982581
thorax -2.10748 0.430767 4.17605
lowerneck -13.3981 -4.74081 -6.94083
upperneck 13.07 -6.06573 6.41492
head 6.59083 -2.75926 2.59764
rclavicle 9.88954e-015 -9.54166e-015
rhumerus -45.1832 1.36167 -76.6389
rradius 35.993
rwrist -2.53522
rhand -28.2943 35.6569
rfingers 7.12502
rthumb -1.67018 5.68367
lclavicle 9.88954e-015 -9.54166e-015
lhumerus -42.8654 4.52143 77.423
lradius 34.2634
lwrist 35.457
lhand -8.26309 37.9817
lfingers 7.12502
lthumb 17.6557 -652.8
rfemur -1.50556 7.42053 21.0681
rtibia 7.79892
rfoot -192.827 175.455
rtoes -16.9319
lfemur -5.90796 2.87825 -23.8921
ltibia 12.4883
lfoot 343.283 4.69659
ltoes -31.5262
141
root 6.63551 15.8451 -39.6179 -526.61 184.509 180.754
lowerback -0.3608 0.387942 -5.59012
upperback -2.23465 0.487024 1.01848
thorax -2.16033 0.36018 4.18161
lowerneck -13.4543 -4.72316 -6.7371
upperneck 12.7099 -6.02824 6.20941
head 6.4698 -2.74837 2.50167
rclavicle -2.29845e-015 4.67144e-015
rhumerus -45.2648 0.988131 -76.6482
rradius 35.6866
rwrist -2.10669
rhand -28.5846 35.1648
rfingers 7.12502
rthumb -1.95055 5.19392
lclavicle -2.29845e-015 4.67144e-015
lhumerus -42.9806 4.1984 78.8853
lradius 36.0386
lwrist 39.5313
lhand -5.4331 38.2651
lfingers 7.12502
lthumb 20.3772 -652.784
rfemur -1.56585 7.19453 21.1907
rtibia 7.37948
rfoot -194.334 174.911
rtoes -14.2267
lfemur -6.02597 2.66762 -23.8106
ltibia 11.8518
lfoot 342.119 3.98302
ltoes -31.67
142
root 6.61985 15.7764 -39.7674 -526.963 184.374 180.978
lowerback -0.480087 0.340404 -5.67122
upperback -2.17916 0.431088 1.00607
thorax -2.03022 0.328375 4.21627
lowerneck -13.411 -4.73555 -6.66819
upperneck 12.3343 -6.03781 6.1735
head 6.34009 -2.75519 2.47936
rclavicle 1.88845e-014 1.41137e-014
rhumerus -44.8164 0.462188 -76.5646
rradius 34.9853
rwrist -1.26164
rhand -28.9311 34.943
rfingers 7.12502
rthumb -2.28516 4.97547
lclavicle 1.88845e-014 1.41137e-014
lhumerus -43.3541 2.25327 81.3499
lradius 39.2134
lwrist 42.2844
lhand -6.36774 40.5337
lfingers 7.12502
lthumb 19.4788 -650.422
rfemur -1.24172 7.64805 21.2732
rtibia 6.88669
rfoot -196.375 174.14
rtoes -10.8365
lfemur -5.77363 2.63372 -23.8762
ltibia 11.2431
lfoot 340.819 3.73409
ltoes -31.3609
143
root 6.60939 15.6961 -39.9178 -527.291 184.29 181.478
lowerback -0.411601 0.284417 -5.99556
upperback -2.23055 0.346614 0.908953
thorax -2.11527 0.294883 4.2993
lowerneck -13.0258 -4.75201 -6.63047
upperneck 11.826 -6.06565 6.16483
head 6.11384 -2.77743 2.47567
rclavicle 8.72168e-015 -9.54166e-015
rhumerus -44.1918 -0.0144339 -76.4966
rradius 33.9909
rwrist -0.417119
rhand -28.9998 34.5816
rfingers 7.12502
rthumb -2.35156 4.61484
lclavicle 8.72168e-015 -9.54166e-015
lhumerus -42.929 -0.148569 83.9473
lradius 40.8756
lwrist 42.2498
lhand -7.76944 40.6336
lfingers 7.12502
lthumb 18.1307 -650.191
rfemur -1.00319 8.38587 21.007
rtibia 6.44521
rfoot -198.147 173.144
rtoes -10.0324
lfemur -5.76252 2.83555 -24.4252
ltibia 10.9346
lfoot 339.852 4.04685
ltoes -33.0271
144
root 6.58716 15.6214 -40.0701 -527.47 184.293 182.108
lowerback -0.543135 0.227619 -6.68657
upperback -2.25118 0.273023 0.848181
thorax -2.06107 0.269048 4.62796
lowerneck -12.2342 -4.7256 -6.67161
upperneck 10.8682 -6.04736 6.32038
head 5.68369 -2.77874 2.55074
rclavicle -8.64713e-015 7.95139e-016
rhumerus -43.1432 -0.583262 -76.3555
rradius 32.5605
rwrist 0.487524
rhand -28.8841 34.1971
rfingers 7.12502
rthumb -2.23982 4.22908
lclavicle -8.64713e-015 7.95139e-016
lhumerus -40.316 -2.40753 85.8215
lradius 37.5514
lwrist 43.3654
lhand -3.5328 37.0958
lfingers 7.12502
lthumb 22.2025 -654.159
rfemur -0.934697 9.59733 20.619
rtibia 5.97149
rfoot -199.536 171.964
rtoes -9.60764
lfemur -6.22052 3.36424 -25.0091
ltibia 11.1843
lfoot 339.077 3.99417
ltoes -34.2863
145
root 6.56674 15.5817 -40.2323 -527.8 184.126 182.963
lowerback -0.45956 0.111469 -7.5711
upperback -2.12137 0.10879 0.786426
thorax -1.95935 0.194787 5.06574
lowerneck -11.5513 -4.65921 -6.77168
upperneck 9.80466 -5.93659 6.35785
head 5.23406 -2.74409 2.60514
rclavicle -3.10601e-015 7.35503e-015
rhumerus -41.4323 -1.3181 -76.1147
rradius 30.397
rwrist 1.9107
rhand -29.2816 34.2236
rfingers 7.12502
rthumb -2.62366 4.26002
lclavicle -3.10601e-015 7.35503e-015
lhumerus -38.2563 -3.66932 87.4257
lradius 35.9833
lwrist 44.6036
lhand -1.27131 33.8802
lfingers 7.12502
lthumb 24.3721 -657.65
rfemur -0.92169 10.4367 19.8666
rtibia 5.63992
rfoot -200.257 171.16
rtoes -8.73365
lfemur -6.99065 3.97373 -25.794
ltibia 12.1217
lfoot 338.482 4.68828
ltoes -37.2703
